<svg width="383" height="161" viewBox="0 0 383 161" fill="none" xmlns="http://www.w3.org/2000/svg">
<path d="M11.616 81.224V36.776C11.616 34.92 11.424 33.544 11.04 32.648C10.656 31.688 9.856 31.048 8.64 30.728C7.488 30.344 5.76 30.152 3.456 30.152C3.328 30.152 3.264 29.96 3.264 29.576C3.264 29.192 3.328 29 3.456 29C4.992 29 6.72 29.064 8.64 29.192C10.56 29.256 12.576 29.288 14.688 29.288C16.992 29.288 19.072 29.256 20.928 29.192C22.848 29.064 24.544 29 26.016 29C26.208 29 26.304 29.192 26.304 29.576C26.304 29.96 26.208 30.152 26.016 30.152C23.712 30.152 21.984 30.344 20.832 30.728C19.68 31.112 18.88 31.784 18.432 32.744C18.048 33.704 17.856 35.112 17.856 36.968V81.224C17.856 83.08 18.048 84.488 18.432 85.448C18.816 86.408 19.584 87.048 20.736 87.368C21.952 87.688 23.712 87.848 26.016 87.848C26.208 87.848 26.304 88.04 26.304 88.424C26.304 88.808 26.208 89 26.016 89C24.48 89 22.784 88.968 20.928 88.904C19.072 88.84 16.992 88.808 14.688 88.808C12.576 88.808 10.528 88.84 8.544 88.904C6.624 88.968 4.896 89 3.36 89C3.232 89 3.168 88.808 3.168 88.424C3.168 88.04 3.232 87.848 3.36 87.848C5.664 87.848 7.424 87.688 8.64 87.368C9.856 87.048 10.656 86.408 11.04 85.448C11.424 84.488 11.616 83.08 11.616 81.224ZM35.712 75.08L20.448 55.88L25.248 52.04L39.264 69.896C42.144 73.672 44.576 76.712 46.56 79.016C48.608 81.32 50.304 83.112 51.648 84.392C52.992 85.608 54.176 86.472 55.2 86.984C56.288 87.432 57.312 87.688 58.272 87.752C59.232 87.816 60.32 87.848 61.536 87.848C61.728 87.848 61.824 88.04 61.824 88.424C61.824 88.808 61.728 89 61.536 89C58.656 89 56.352 89 54.624 89C52.896 89 51.616 89 50.784 89C49.44 89 48.416 89 47.712 89C47.008 89 46.432 88.84 45.984 88.52C45.536 88.136 44.96 87.496 44.256 86.6C43.552 85.64 42.528 84.232 41.184 82.376C39.904 80.52 38.08 78.088 35.712 75.08ZM13.632 61.448L38.4 36.776C40.768 34.344 41.76 32.648 41.376 31.688C41.056 30.664 39.232 30.152 35.904 30.152C35.776 30.152 35.712 29.96 35.712 29.576C35.712 29.192 35.776 29 35.904 29C37.504 29 39.104 29.064 40.704 29.192C42.304 29.256 44.416 29.288 47.04 29.288C49.536 29.288 51.52 29.256 52.992 29.192C54.464 29.064 55.872 29 57.216 29C57.408 29 57.504 29.192 57.504 29.576C57.504 29.96 57.408 30.152 57.216 30.152C54.912 30.152 52.256 30.696 49.248 31.784C46.24 32.808 43.36 34.664 40.608 37.352L16.032 61.448H13.632ZM82.8855 57.224L84.3255 55.208H104.102L104.774 57.224H82.8855ZM129.542 87.848C129.798 87.848 129.926 88.04 129.926 88.424C129.926 88.808 129.798 89 129.542 89C127.686 89 125.798 88.936 123.878 88.808C121.958 88.68 120.102 88.616 118.31 88.616C116.326 88.616 114.597 88.68 113.125 88.808C111.653 88.936 110.022 89 108.23 89C107.974 89 107.846 88.808 107.846 88.424C107.846 88.04 107.974 87.848 108.23 87.848C111.622 87.848 113.734 87.368 114.566 86.408C115.398 85.384 115.174 83.496 113.894 80.744L92.5815 35.72L94.9815 32.744L76.3575 76.808C74.7575 80.712 74.6615 83.528 76.0695 85.256C77.4775 86.984 80.2615 87.848 84.4215 87.848C84.7415 87.848 84.9015 88.04 84.9015 88.424C84.9015 88.808 84.7415 89 84.4215 89C82.5015 89 80.7415 88.936 79.1415 88.808C77.5415 88.68 75.5255 88.616 73.0935 88.616C70.7895 88.616 68.9335 88.68 67.5255 88.808C66.1815 88.936 64.5175 89 62.5335 89C62.2775 89 62.1495 88.808 62.1495 88.424C62.1495 88.04 62.2775 87.848 62.5335 87.848C64.2615 87.848 65.7655 87.528 67.0455 86.888C68.3255 86.184 69.5095 85 70.5975 83.336C71.7495 81.608 72.9975 79.144 74.3415 75.944L94.5975 28.136C94.7255 27.944 94.9495 27.848 95.2695 27.848C95.5895 27.848 95.7815 27.944 95.8455 28.136L118.502 75.848C119.974 78.984 121.286 81.448 122.438 83.24C123.59 84.968 124.71 86.184 125.798 86.888C126.95 87.528 128.198 87.848 129.542 87.848ZM158.932 89.384C157.076 89.384 154.772 89.288 152.02 89.096C149.332 88.904 146.836 88.808 144.532 88.808C142.42 88.808 140.372 88.84 138.388 88.904C136.468 88.968 134.74 89 133.204 89C133.076 89 133.012 88.808 133.012 88.424C133.012 88.04 133.076 87.848 133.204 87.848C135.508 87.848 137.268 87.688 138.484 87.368C139.7 87.048 140.5 86.408 140.884 85.448C141.268 84.488 141.46 83.08 141.46 81.224V36.776C141.46 34.92 141.268 33.544 140.884 32.648C140.5 31.688 139.7 31.048 138.484 30.728C137.332 30.344 135.604 30.152 133.3 30.152C133.172 30.152 133.108 29.96 133.108 29.576C133.108 29.192 133.172 29 133.3 29C134.836 29 136.564 29.064 138.484 29.192C140.404 29.256 142.42 29.288 144.532 29.288C146.644 29.288 148.916 29.224 151.348 29.096C153.78 28.904 155.86 28.808 157.588 28.808C164.372 28.808 170.292 30.088 175.348 32.648C180.468 35.208 184.436 38.696 187.252 43.112C190.068 47.528 191.476 52.488 191.476 57.992C191.476 62.792 190.612 67.144 188.884 71.048C187.22 74.888 184.852 78.184 181.78 80.936C178.772 83.624 175.284 85.704 171.316 87.176C167.412 88.648 163.284 89.384 158.932 89.384ZM157.972 87.944C163.092 87.944 167.604 86.888 171.508 84.776C175.412 82.6 178.484 79.432 180.724 75.272C183.028 71.112 184.18 66.056 184.18 60.104C184.18 54.536 183.124 49.512 181.012 45.032C178.9 40.488 175.924 36.904 172.084 34.28C168.308 31.592 163.764 30.248 158.452 30.248C154.612 30.248 151.86 30.632 150.196 31.4C148.532 32.168 147.7 34.024 147.7 36.968V80.168C147.7 82.856 148.34 84.84 149.62 86.12C150.964 87.336 153.748 87.944 157.972 87.944ZM215.542 57.224L216.982 55.208H236.758L237.43 57.224H215.542ZM262.198 87.848C262.454 87.848 262.582 88.04 262.582 88.424C262.582 88.808 262.454 89 262.198 89C260.342 89 258.454 88.936 256.534 88.808C254.614 88.68 252.758 88.616 250.966 88.616C248.982 88.616 247.254 88.68 245.782 88.808C244.31 88.936 242.678 89 240.886 89C240.63 89 240.502 88.808 240.502 88.424C240.502 88.04 240.63 87.848 240.886 87.848C244.278 87.848 246.39 87.368 247.222 86.408C248.054 85.384 247.83 83.496 246.55 80.744L225.238 35.72L227.638 32.744L209.014 76.808C207.414 80.712 207.318 83.528 208.726 85.256C210.134 86.984 212.918 87.848 217.078 87.848C217.398 87.848 217.558 88.04 217.558 88.424C217.558 88.808 217.398 89 217.078 89C215.158 89 213.398 88.936 211.798 88.808C210.198 88.68 208.182 88.616 205.75 88.616C203.446 88.616 201.59 88.68 200.182 88.808C198.838 88.936 197.174 89 195.19 89C194.934 89 194.806 88.808 194.806 88.424C194.806 88.04 194.934 87.848 195.19 87.848C196.918 87.848 198.422 87.528 199.702 86.888C200.982 86.184 202.166 85 203.254 83.336C204.406 81.608 205.654 79.144 206.998 75.944L227.254 28.136C227.382 27.944 227.606 27.848 227.926 27.848C228.246 27.848 228.438 27.944 228.502 28.136L251.158 75.848C252.63 78.984 253.942 81.448 255.094 83.24C256.246 84.968 257.366 86.184 258.454 86.888C259.606 87.528 260.854 87.848 262.198 87.848ZM276.42 40.232C276.42 42.856 277.06 45.128 278.34 47.048C279.684 48.904 281.38 50.536 283.428 51.944C285.476 53.352 287.652 54.76 289.956 56.168C292.324 57.512 294.596 58.952 296.772 60.488C299.012 62.024 300.836 63.848 302.244 65.96C303.716 68.072 304.452 70.664 304.452 73.736C304.452 76.808 303.684 79.592 302.148 82.088C300.612 84.52 298.372 86.472 295.428 87.944C292.548 89.416 288.964 90.152 284.676 90.152C283.14 90.152 281.604 90.024 280.068 89.768C278.596 89.576 277.092 89.224 275.556 88.712C274.084 88.2 272.612 87.56 271.14 86.792C270.82 86.6 270.596 86.376 270.468 86.12C270.404 85.8 270.34 85.416 270.276 84.968L269.028 71.912C268.964 71.592 269.092 71.432 269.412 71.432C269.796 71.368 270.02 71.464 270.084 71.72C270.532 73.64 271.172 75.592 272.004 77.576C272.836 79.56 273.924 81.384 275.268 83.048C276.612 84.712 278.244 86.056 280.164 87.08C282.084 88.104 284.324 88.616 286.884 88.616C288.74 88.616 290.532 88.264 292.26 87.56C294.052 86.856 295.492 85.704 296.58 84.104C297.732 82.504 298.308 80.328 298.308 77.576C298.308 74.44 297.604 71.848 296.196 69.8C294.852 67.688 293.124 65.864 291.012 64.328C288.9 62.792 286.66 61.352 284.292 60.008C282.052 58.6 279.876 57.16 277.764 55.688C275.716 54.216 274.02 52.488 272.676 50.504C271.396 48.456 270.756 45.928 270.756 42.92C270.756 39.528 271.62 36.744 273.348 34.568C275.076 32.328 277.316 30.664 280.068 29.576C282.82 28.488 285.668 27.944 288.612 27.944C290.404 27.944 292.26 28.136 294.18 28.52C296.1 28.84 297.988 29.416 299.844 30.248C300.356 30.44 300.708 30.696 300.9 31.016C301.156 31.272 301.284 31.56 301.284 31.88L301.956 42.824C301.956 43.08 301.796 43.24 301.476 43.304C301.156 43.304 300.932 43.176 300.804 42.92C300.676 41.64 300.324 40.232 299.748 38.696C299.172 37.096 298.34 35.592 297.252 34.184C296.164 32.776 294.788 31.624 293.124 30.728C291.46 29.832 289.444 29.384 287.076 29.384C284.58 29.384 282.532 29.928 280.932 31.016C279.396 32.04 278.244 33.384 277.476 35.048C276.772 36.648 276.42 38.376 276.42 40.232ZM364.472 36.968C364.472 35.112 364.28 33.704 363.896 32.744C363.512 31.784 362.712 31.112 361.496 30.728C360.344 30.344 358.52 30.152 356.024 30.152C355.832 30.152 355.736 29.96 355.736 29.576C355.736 29.192 355.832 29 356.024 29C357.56 29 359.288 29.064 361.208 29.192C363.128 29.256 365.272 29.288 367.64 29.288C369.752 29.288 371.8 29.256 373.784 29.192C375.768 29.064 377.496 29 378.968 29C379.16 29 379.256 29.192 379.256 29.576C379.256 29.96 379.16 30.152 378.968 30.152C376.6 30.152 374.808 30.344 373.592 30.728C372.376 31.048 371.576 31.688 371.192 32.648C370.808 33.544 370.616 34.92 370.616 36.776V81.224C370.616 83.08 370.808 84.488 371.192 85.448C371.576 86.408 372.376 87.048 373.592 87.368C374.808 87.688 376.6 87.848 378.968 87.848C379.16 87.848 379.256 88.04 379.256 88.424C379.256 88.808 379.16 89 378.968 89C377.496 89 375.768 88.968 373.784 88.904C371.8 88.84 369.752 88.808 367.64 88.808C365.272 88.808 363.128 88.84 361.208 88.904C359.288 88.968 357.56 89 356.024 89C355.832 89 355.736 88.808 355.736 88.424C355.736 88.04 355.832 87.848 356.024 87.848C358.52 87.848 360.344 87.688 361.496 87.368C362.712 87.048 363.512 86.408 363.896 85.448C364.28 84.488 364.472 83.08 364.472 81.224V36.968ZM324.248 58.76V56.744H367.16V58.76H324.248ZM321.464 81.224V36.776C321.464 34.92 321.24 33.544 320.792 32.648C320.408 31.688 319.608 31.048 318.392 30.728C317.24 30.344 315.48 30.152 313.112 30.152C312.984 30.152 312.92 29.96 312.92 29.576C312.92 29.192 312.984 29 313.112 29C314.648 29 316.376 29.064 318.296 29.192C320.28 29.256 322.328 29.288 324.44 29.288C326.808 29.288 328.952 29.256 330.872 29.192C332.792 29.064 334.52 29 336.056 29C336.184 29 336.248 29.192 336.248 29.576C336.248 29.96 336.184 30.152 336.056 30.152C333.688 30.152 331.896 30.344 330.68 30.728C329.464 31.112 328.632 31.784 328.184 32.744C327.8 33.704 327.608 35.112 327.608 36.968V81.224C327.608 83.08 327.8 84.488 328.184 85.448C328.568 86.408 329.368 87.048 330.584 87.368C331.864 87.688 333.688 87.848 336.056 87.848C336.184 87.848 336.248 88.04 336.248 88.424C336.248 88.808 336.184 89 336.056 89C334.456 89 332.696 88.968 330.776 88.904C328.92 88.84 326.808 88.808 324.44 88.808C322.328 88.808 320.28 88.84 318.296 88.904C316.312 88.968 314.552 89 313.016 89C312.888 89 312.824 88.808 312.824 88.424C312.824 88.04 312.888 87.848 313.016 87.848C315.384 87.848 317.176 87.688 318.392 87.368C319.608 87.048 320.408 86.408 320.792 85.448C321.24 84.488 321.464 83.08 321.464 81.224Z" fill="#050316"/>
<path d="M86.764 147.692C82.972 147.692 80.392 146.396 79.024 143.804C76.552 145.868 74.788 146.9 73.732 146.9C73.228 146.9 72.832 146.66 72.544 146.18C72.28 145.7 72.148 145.16 72.148 144.56C72.148 143.12 72.7 141.44 73.804 139.52C74.284 138.68 74.812 137.912 75.388 137.216C75.964 136.52 76.612 136.172 77.332 136.172C78.028 136.172 78.556 136.748 78.916 137.9L79.996 141.356C80.38 140.948 80.8 140.456 81.256 139.88C81.736 139.28 82.264 138.584 82.84 137.792L86.044 133.472C89.98 128.36 92.56 125.564 93.784 125.084C94.216 124.916 94.648 124.832 95.08 124.832C95.56 124.832 95.944 124.94 96.232 125.156C96.544 125.348 96.7 125.576 96.7 125.84C96.7 126.272 96.352 126.524 95.656 126.596C94.936 127.004 93.532 128.216 91.444 130.232C90.484 131.168 89.704 131.948 89.104 132.572C88.528 133.172 88.132 133.628 87.916 133.94C85.228 137.684 82.744 140.564 80.464 142.58C81.928 145.484 84.124 146.936 87.052 146.936C88.156 146.936 89.272 146.696 90.4 146.216C91.552 145.76 92.608 145.148 93.568 144.38C94.552 143.612 95.344 142.76 95.944 141.824C96.544 140.864 96.844 139.916 96.844 138.98C96.844 137.996 96.496 137.108 95.8 136.316C95.104 135.524 94.252 134.96 93.244 134.624C93.244 134.624 93.064 134.6 92.704 134.552C92.344 134.504 91.792 134.432 91.048 134.336C89.92 134.192 89.356 133.964 89.356 133.652C89.356 133.436 89.488 133.244 89.752 133.076C90.04 132.908 90.328 132.824 90.616 132.824C90.832 132.824 91.084 132.872 91.372 132.968C91.66 133.064 91.912 133.16 92.128 133.256C92.368 133.328 92.488 133.364 92.488 133.364C92.68 133.388 92.896 133.412 93.136 133.436C93.376 133.436 93.616 133.436 93.856 133.436C95.44 133.436 96.88 133.184 98.176 132.68C99.424 132.176 100.336 131.48 100.912 130.592C101.488 129.704 101.776 128.672 101.776 127.496C101.776 126.296 101.392 125.348 100.624 124.652C99.88 123.956 98.884 123.464 97.636 123.176C96.412 122.864 95.08 122.708 93.64 122.708C90.832 122.708 88.156 123.116 85.612 123.932C83.092 124.748 80.908 126.104 79.06 128C77.644 129.464 76.936 130.688 76.936 131.672C76.936 132.368 77.116 132.956 77.476 133.436C77.572 133.556 77.68 133.676 77.8 133.796C77.92 133.916 78.064 134.036 78.232 134.156C78.352 134.228 78.28 134.264 78.016 134.264C76.528 133.928 75.784 132.932 75.784 131.276C75.784 129.62 76.624 128.06 78.304 126.596C79.6 125.468 81.076 124.556 82.732 123.86C84.412 123.164 86.176 122.66 88.024 122.348C89.896 122.036 91.744 121.88 93.568 121.88C94.864 121.88 96.112 121.976 97.312 122.168C98.512 122.36 99.592 122.684 100.552 123.14C101.512 123.572 102.268 124.148 102.82 124.868C103.396 125.588 103.684 126.476 103.684 127.532C103.684 129.02 103.288 130.208 102.496 131.096C101.704 131.984 100.636 132.668 99.292 133.148C97.708 133.7 96.004 133.988 94.18 134.012C95.188 134.06 96.064 134.324 96.808 134.804C97.576 135.284 98.164 135.908 98.572 136.676C99.004 137.444 99.22 138.284 99.22 139.196C99.22 140.42 98.848 141.56 98.104 142.616C97.384 143.648 96.412 144.548 95.188 145.316C93.964 146.06 92.62 146.636 91.156 147.044C89.692 147.476 88.228 147.692 86.764 147.692ZM74.2 146.072C74.968 146.072 76.444 144.98 78.628 142.796L78.52 142.652C77.56 139.46 76.792 137.864 76.216 137.864C76.192 137.864 76.132 137.888 76.036 137.936C74.26 140.504 73.372 142.568 73.372 144.128C73.372 144.464 73.432 144.872 73.552 145.352C73.696 145.832 73.912 146.072 74.2 146.072ZM101.824 153.38C101.056 153.38 100.384 153.056 99.8081 152.408C99.2321 151.736 98.9561 150.992 98.9801 150.176C99.2681 150.536 99.6521 150.956 100.132 151.436C100.756 152.036 101.368 152.336 101.968 152.336C103.336 152.336 104.812 151.244 106.396 149.06C106.948 148.292 107.512 147.392 108.088 146.36C108.688 145.352 109.252 144.224 109.78 142.976L111.148 139.664L105.856 143.804C104.224 145.076 102.916 145.712 101.932 145.712C101.404 145.712 100.984 145.52 100.672 145.136C100.36 144.752 100.204 144.356 100.204 143.948C100.204 142.916 101.092 141.224 102.868 138.872C104.644 136.496 105.976 135.308 106.864 135.308C107.608 135.308 107.98 135.584 107.98 136.136C107.98 136.352 106.912 137.6 104.776 139.88C102.664 142.136 101.608 143.66 101.608 144.452C101.608 144.764 101.812 144.92 102.22 144.92C102.988 144.92 104.656 143.924 107.224 141.932C108.28 141.092 109.216 140.324 110.032 139.628C110.848 138.932 111.532 138.308 112.084 137.756C112.276 137.516 112.468 137.288 112.66 137.072C112.852 136.832 113.032 136.592 113.2 136.352C113.656 135.824 114.112 135.56 114.568 135.56C115.216 135.56 115.54 135.824 115.54 136.352C115.54 136.448 115.036 137.24 114.028 138.728C113.5 139.544 113.08 140.18 112.768 140.636C112.456 141.068 112.276 141.344 112.228 141.464C111.484 142.904 110.344 145.004 108.808 147.764C106.48 151.508 104.152 153.38 101.824 153.38ZM141.077 149.924C139.733 149.924 138.353 149.72 136.937 149.312C135.521 148.928 134.177 148.352 132.905 147.584C131.657 146.816 130.577 145.904 129.665 144.848C127.745 146.768 125.921 147.728 124.193 147.728C123.305 147.728 122.645 147.464 122.213 146.936C121.781 146.432 121.565 145.772 121.565 144.956C121.565 143.444 122.141 141.668 123.293 139.628C124.373 137.708 125.237 136.7 125.885 136.604C126.365 136.604 126.857 137.096 127.361 138.08L129.629 142.472C130.901 140.768 132.233 138.932 133.625 136.964C131.657 136.076 130.673 134.792 130.673 133.112C130.673 132.392 130.841 131.732 131.177 131.132C131.537 130.508 131.993 130.004 132.545 129.62C133.097 129.236 133.661 129.044 134.237 129.044C135.029 129.044 135.605 129.416 135.965 130.16C136.013 130.232 136.013 130.304 135.965 130.376C135.941 130.448 135.905 130.472 135.857 130.448C135.689 130.256 135.449 130.088 135.137 129.944C134.825 129.8 134.537 129.728 134.273 129.728C133.769 129.728 133.301 129.932 132.869 130.34C132.461 130.724 132.137 131.18 131.897 131.708C131.681 132.236 131.597 132.704 131.645 133.112C131.645 134.336 132.509 135.404 134.237 136.316C134.645 135.716 135.089 135.068 135.569 134.372C136.049 133.652 136.565 132.884 137.117 132.068C141.893 125.06 145.865 121.556 149.033 121.556C151.265 121.556 152.381 122.6 152.381 124.688C152.381 126.584 151.457 128.816 149.609 131.384C148.697 132.656 147.545 133.796 146.153 134.804C144.761 135.812 143.285 136.616 141.725 137.216C140.189 137.792 138.701 138.08 137.261 138.08C136.925 138.08 136.589 138.068 136.253 138.044C135.941 137.996 135.653 137.924 135.389 137.828C134.765 138.644 134.045 139.556 133.229 140.564C132.413 141.572 131.513 142.688 130.529 143.912C130.961 144.512 131.573 145.112 132.365 145.712C133.181 146.312 134.093 146.84 135.101 147.296C136.109 147.776 137.105 148.16 138.089 148.448C139.073 148.736 139.961 148.88 140.753 148.88C141.665 148.88 142.505 148.772 143.273 148.556C144.041 148.364 144.665 148.04 145.145 147.584C145.625 147.152 145.865 146.576 145.865 145.856C145.865 145.76 145.865 145.664 145.865 145.568C145.865 145.472 145.853 145.376 145.829 145.28C145.829 145.232 145.817 145.196 145.793 145.172C145.793 145.148 145.793 145.124 145.793 145.1C145.793 144.86 145.865 144.74 146.009 144.74C146.249 144.74 146.441 144.932 146.585 145.316C146.729 145.676 146.801 145.964 146.801 146.18C146.801 146.924 146.513 147.572 145.937 148.124C145.361 148.7 144.629 149.144 143.741 149.456C142.877 149.768 141.989 149.924 141.077 149.924ZM137.009 137.144C138.233 137.144 139.541 136.868 140.933 136.316C142.325 135.74 143.633 134.996 144.857 134.084C146.105 133.148 147.113 132.14 147.881 131.06C150.065 128.012 151.157 125.696 151.157 124.112C151.157 123.44 150.965 122.948 150.581 122.636C150.197 122.324 149.729 122.168 149.177 122.168C147.977 122.168 146.489 123.176 144.713 125.192C144.161 125.84 143.429 126.776 142.517 128C141.629 129.2 140.573 130.688 139.349 132.464C138.869 133.16 138.341 133.892 137.765 134.66C137.189 135.428 136.589 136.22 135.965 137.036C136.301 137.108 136.649 137.144 137.009 137.144ZM124.265 146.756C124.721 146.756 125.225 146.588 125.777 146.252C126.353 145.94 126.905 145.544 127.433 145.064C127.961 144.584 128.393 144.116 128.729 143.66C128.393 143.18 128.033 142.604 127.649 141.932C127.265 141.26 126.845 140.48 126.389 139.592C125.837 138.44 125.417 137.924 125.129 138.044C124.697 138.116 124.229 138.884 123.725 140.348C123.221 141.812 122.969 143.18 122.969 144.452C122.969 145.988 123.401 146.756 124.265 146.756ZM147.564 146.18C146.988 146.18 146.412 145.976 145.836 145.568C145.26 145.16 144.936 144.68 144.864 144.128C144.624 142.28 145.788 140.084 148.356 137.54C150.9 134.996 153.192 133.724 155.232 133.724C155.784 133.724 156.216 133.856 156.528 134.12C156.696 134.288 156.816 134.516 156.888 134.804C156.984 135.092 157.056 135.236 157.104 135.236C157.2 135.236 157.284 135.224 157.356 135.2C157.428 135.152 157.512 135.128 157.608 135.128C157.896 135.128 158.148 135.236 158.364 135.452C158.58 135.668 158.7 135.86 158.724 136.028C158.748 136.076 157.98 137.264 156.42 139.592C154.86 141.872 154.152 143.42 154.296 144.236C154.416 144.788 154.68 145.064 155.088 145.064C156.336 145.064 158.616 143 161.928 138.872C162 138.776 162.072 138.728 162.144 138.728C162.264 138.728 162.324 138.812 162.324 138.98C162.324 139.172 162.216 139.412 162 139.7C158.952 143.804 156.612 145.856 154.98 145.856C154.764 145.856 154.56 145.82 154.368 145.748C153.312 145.34 152.784 144.548 152.784 143.372C152.784 142.964 152.832 142.556 152.928 142.148L150.696 144.308C150.024 144.98 149.412 145.46 148.86 145.748C148.332 146.036 147.9 146.18 147.564 146.18ZM147.24 145.388C148.632 145.388 150.528 143.864 152.928 140.816L156.744 135.56C156.552 135.224 156.24 135.056 155.808 135.056C154.344 135.056 152.364 136.232 149.868 138.584C147.276 140.984 146.112 142.964 146.376 144.524C146.496 145.1 146.784 145.388 147.24 145.388ZM161.68 146.396C160.6 146.396 160.06 145.712 160.06 144.344C160.06 143.816 160.216 143.192 160.528 142.472C160.864 141.728 161.332 140.948 161.932 140.132C161.932 140.132 161.716 140.336 161.284 140.744C160.852 141.152 160.36 141.668 159.808 142.292C159.712 142.388 159.592 142.436 159.448 142.436C159.352 142.436 159.304 142.376 159.304 142.256C159.304 142.136 159.412 141.932 159.628 141.644L164.596 135.812C165.22 135.092 165.904 134.732 166.648 134.732C167.2 134.732 167.476 134.948 167.476 135.38C167.476 135.548 167.404 135.704 167.26 135.848C166.804 136.28 166.24 136.892 165.568 137.684C164.92 138.476 164.284 139.328 163.66 140.24C163.036 141.152 162.508 142.028 162.076 142.868C161.668 143.684 161.464 144.344 161.464 144.848C161.464 145.28 161.608 145.496 161.896 145.496C162.064 145.496 162.328 145.436 162.688 145.316C163.048 145.172 163.528 144.896 164.128 144.488C164.728 144.056 165.448 143.396 166.288 142.508C166.432 142.364 166.816 141.932 167.44 141.212C168.064 140.492 168.904 139.46 169.96 138.116C171.832 135.788 173.056 134.624 173.632 134.624C174.424 134.624 174.856 134.948 174.928 135.596C174.976 135.812 174.472 136.52 173.416 137.72C172.048 139.376 171.112 140.564 170.608 141.284C169.672 142.652 169.204 143.72 169.204 144.488C169.204 145.016 169.384 145.28 169.744 145.28C170.104 145.28 170.56 145.112 171.112 144.776C171.688 144.416 172.288 143.972 172.912 143.444C173.536 142.892 174.136 142.328 174.712 141.752C175.312 141.152 175.828 140.6 176.26 140.096C176.404 139.928 176.548 139.844 176.692 139.844C176.836 139.844 176.908 139.916 176.908 140.06C176.908 140.108 176.896 140.18 176.872 140.276C176.848 140.372 176.776 140.48 176.656 140.6C176.272 141.032 175.78 141.572 175.18 142.22C174.58 142.844 173.932 143.468 173.236 144.092C172.54 144.716 171.868 145.232 171.22 145.64C170.572 146.048 170.02 146.252 169.564 146.252C169.012 146.252 168.532 146.108 168.124 145.82C167.716 145.508 167.512 145.088 167.512 144.56C167.512 144.032 167.596 143.504 167.764 142.976C167.932 142.424 168.064 141.956 168.16 141.572C167.032 142.892 166.036 143.9 165.172 144.596C164.332 145.292 163.624 145.76 163.048 146C162.472 146.264 162.016 146.396 161.68 146.396ZM182.625 146.18C181.593 146.18 180.885 145.916 180.501 145.388C180.117 144.836 179.925 144.104 179.925 143.192C179.925 142.184 180.237 140.984 180.861 139.592C181.101 139.04 181.353 138.548 181.617 138.116C181.881 137.66 182.157 137.24 182.445 136.856C182.349 136.88 182.265 136.892 182.193 136.892C182.121 136.892 182.049 136.892 181.977 136.892C181.401 136.892 180.921 136.484 180.537 135.668L177.873 139.124C176.457 140.972 175.593 141.896 175.281 141.896C175.161 141.896 175.101 141.848 175.101 141.752C175.101 141.632 175.161 141.476 175.281 141.284C175.353 141.14 175.497 140.948 175.713 140.708C176.625 139.652 177.465 138.608 178.233 137.576C179.001 136.544 179.637 135.536 180.141 134.552C180.693 132.464 181.389 131.42 182.229 131.42C182.781 131.42 183.057 131.672 183.057 132.176C183.057 132.632 182.757 133.232 182.157 133.976C181.581 134.72 181.293 135.104 181.293 135.128C181.293 135.632 181.665 135.884 182.409 135.884C182.841 135.884 183.321 135.728 183.849 135.416L184.785 134.84C184.833 134.816 184.905 134.804 185.001 134.804C185.289 134.804 185.541 134.924 185.757 135.164C185.973 135.404 186.045 135.62 185.973 135.812L183.489 138.944C181.953 140.912 181.185 142.496 181.185 143.696C181.185 144.776 181.713 145.316 182.769 145.316C183.489 145.316 184.257 145.1 185.073 144.668C185.913 144.236 186.717 143.708 187.485 143.084C188.277 142.436 188.937 141.812 189.465 141.212L190.329 140.204C190.377 140.156 190.437 140.096 190.509 140.024C190.581 139.952 190.641 139.916 190.689 139.916C190.857 139.916 190.941 140 190.941 140.168C190.941 140.216 190.917 140.3 190.869 140.42C190.821 140.54 190.737 140.672 190.617 140.816L189.465 142.112C188.913 142.736 188.229 143.372 187.413 144.02C186.621 144.644 185.793 145.16 184.929 145.568C184.089 145.976 183.321 146.18 182.625 146.18ZM191.861 146.18C191.285 146.18 190.709 145.976 190.133 145.568C189.557 145.16 189.233 144.68 189.161 144.128C188.921 142.28 190.085 140.084 192.653 137.54C195.197 134.996 197.489 133.724 199.529 133.724C200.081 133.724 200.513 133.856 200.825 134.12C200.993 134.288 201.113 134.516 201.185 134.804C201.281 135.092 201.353 135.236 201.401 135.236C201.497 135.236 201.581 135.224 201.653 135.2C201.725 135.152 201.809 135.128 201.905 135.128C202.193 135.128 202.445 135.236 202.661 135.452C202.877 135.668 202.997 135.86 203.021 136.028C203.045 136.076 202.277 137.264 200.717 139.592C199.157 141.872 198.449 143.42 198.593 144.236C198.713 144.788 198.977 145.064 199.385 145.064C200.633 145.064 202.913 143 206.225 138.872C206.297 138.776 206.369 138.728 206.441 138.728C206.561 138.728 206.621 138.812 206.621 138.98C206.621 139.172 206.513 139.412 206.297 139.7C203.249 143.804 200.909 145.856 199.277 145.856C199.061 145.856 198.857 145.82 198.665 145.748C197.609 145.34 197.081 144.548 197.081 143.372C197.081 142.964 197.129 142.556 197.225 142.148L194.993 144.308C194.321 144.98 193.709 145.46 193.157 145.748C192.629 146.036 192.197 146.18 191.861 146.18ZM191.537 145.388C192.929 145.388 194.825 143.864 197.225 140.816L201.041 135.56C200.849 135.224 200.537 135.056 200.105 135.056C198.641 135.056 196.661 136.232 194.165 138.584C191.573 140.984 190.409 142.964 190.673 144.524C190.793 145.1 191.081 145.388 191.537 145.388ZM216.93 150.176C213.234 149.864 211.386 147.968 211.386 144.488C211.386 142.424 212.034 140.24 213.33 137.936C214.098 136.544 215.058 135.188 216.21 133.868C217.386 132.548 218.658 131.36 220.026 130.304C221.418 129.224 222.834 128.372 224.274 127.748C225.738 127.124 227.142 126.812 228.486 126.812C230.862 126.812 232.05 127.688 232.05 129.44C232.05 130.616 231.69 131.924 230.97 133.364C230.25 134.804 229.518 135.716 228.774 136.1C228.702 136.124 228.618 136.136 228.522 136.136C228.45 136.136 228.414 136.112 228.414 136.064L229.602 134.12C230.418 132.776 230.826 131.6 230.826 130.592C230.826 129.872 230.634 129.188 230.25 128.54C229.866 127.892 229.182 127.568 228.198 127.568C226.998 127.568 225.762 127.904 224.49 128.576C223.242 129.248 222.03 130.136 220.854 131.24C219.678 132.344 218.61 133.568 217.65 134.912C216.69 136.232 215.922 137.54 215.346 138.836C214.122 141.596 213.51 143.828 213.51 145.532C213.51 148.1 214.818 149.384 217.434 149.384C219.93 149.384 223.314 147.776 227.586 144.56C228.57 143.816 229.83 142.772 231.366 141.428C232.926 140.084 234.75 138.452 236.838 136.532C236.55 136.556 236.19 136.592 235.758 136.64C235.326 136.664 234.822 136.724 234.246 136.82C234.006 136.868 233.778 136.916 233.562 136.964C233.346 136.988 233.142 137 232.95 137C232.47 136.952 232.266 136.832 232.338 136.64C232.434 135.752 232.89 135.308 233.706 135.308C234.45 135.404 235.146 135.476 235.794 135.524C236.466 135.572 237.102 135.596 237.702 135.596C238.638 134.732 239.874 133.532 241.41 131.996C242.97 130.436 244.818 128.528 246.954 126.272C249.714 123.368 251.394 121.916 251.994 121.916C252.258 121.916 252.39 122.156 252.39 122.636C252.39 122.828 252.366 123.068 252.318 123.356C252.27 123.644 252.198 123.98 252.102 124.364C251.862 125.276 251.61 125.828 251.346 126.02C250.602 126.548 249.978 127.232 249.474 128.072C248.994 128.888 248.502 129.8 247.998 130.808C247.494 131.84 247.026 132.764 246.594 133.58C246.186 134.372 245.814 135.08 245.478 135.704L248.97 135.632C249.834 135.632 250.266 135.692 250.266 135.812C250.266 135.836 250.242 135.872 250.194 135.92C249.786 136.184 248.058 136.424 245.01 136.64C242.778 140.984 241.662 143.96 241.662 145.568C241.662 146.672 242.01 147.224 242.706 147.224C242.97 147.224 243.306 147.056 243.714 146.72C244.098 146.408 244.338 146.252 244.434 146.252C244.434 146.204 244.446 146.192 244.47 146.216C244.494 146.24 244.482 146.252 244.434 146.252C244.314 146.684 243.954 147.068 243.354 147.404C242.778 147.764 242.166 147.944 241.518 147.944C240.918 147.944 240.522 147.752 240.33 147.368C240.138 146.984 240.042 146.456 240.042 145.784C240.042 143.36 240.966 140.276 242.814 136.532L238.494 136.64C235.278 139.784 232.05 142.544 228.81 144.92C223.65 148.664 219.69 150.416 216.93 150.176ZM243.138 135.596C243.426 135.044 244.002 134.048 244.866 132.608C245.73 131.144 246.894 129.248 248.358 126.92L239.142 135.56L243.138 135.596ZM255.469 146.18C254.437 146.18 253.729 145.916 253.345 145.388C252.961 144.836 252.769 144.104 252.769 143.192C252.769 142.184 253.081 140.984 253.705 139.592C253.945 139.04 254.197 138.548 254.461 138.116C254.725 137.66 255.001 137.24 255.289 136.856C255.193 136.88 255.109 136.892 255.037 136.892C254.965 136.892 254.893 136.892 254.821 136.892C254.245 136.892 253.765 136.484 253.381 135.668L250.717 139.124C249.301 140.972 248.437 141.896 248.125 141.896C248.005 141.896 247.945 141.848 247.945 141.752C247.945 141.632 248.005 141.476 248.125 141.284C248.197 141.14 248.341 140.948 248.557 140.708C249.469 139.652 250.309 138.608 251.077 137.576C251.845 136.544 252.481 135.536 252.985 134.552C253.537 132.464 254.233 131.42 255.073 131.42C255.625 131.42 255.901 131.672 255.901 132.176C255.901 132.632 255.601 133.232 255.001 133.976C254.425 134.72 254.137 135.104 254.137 135.128C254.137 135.632 254.509 135.884 255.253 135.884C255.685 135.884 256.165 135.728 256.693 135.416L257.629 134.84C257.677 134.816 257.749 134.804 257.845 134.804C258.133 134.804 258.385 134.924 258.601 135.164C258.817 135.404 258.889 135.62 258.817 135.812L256.333 138.944C254.797 140.912 254.029 142.496 254.029 143.696C254.029 144.776 254.557 145.316 255.613 145.316C256.333 145.316 257.101 145.1 257.917 144.668C258.757 144.236 259.561 143.708 260.329 143.084C261.121 142.436 261.781 141.812 262.309 141.212L263.173 140.204C263.221 140.156 263.281 140.096 263.353 140.024C263.425 139.952 263.485 139.916 263.533 139.916C263.701 139.916 263.785 140 263.785 140.168C263.785 140.216 263.761 140.3 263.713 140.42C263.665 140.54 263.581 140.672 263.461 140.816L262.309 142.112C261.757 142.736 261.073 143.372 260.257 144.02C259.465 144.644 258.637 145.16 257.773 145.568C256.933 145.976 256.165 146.18 255.469 146.18ZM264.705 146.18C263.985 146.18 263.373 145.988 262.869 145.604C262.365 145.196 262.077 144.704 262.005 144.128C261.909 143.36 262.017 142.592 262.329 141.824C262.665 141.032 263.109 140.276 263.661 139.556C264.237 138.836 264.849 138.164 265.497 137.54C268.041 134.996 270.333 133.724 272.373 133.724C273.069 133.724 273.537 133.904 273.777 134.264C273.873 134.384 273.981 134.66 274.101 135.092C276.789 130.724 278.661 128.54 279.717 128.54C279.957 128.54 280.209 128.6 280.473 128.72C280.737 128.84 280.869 128.996 280.869 129.188C280.869 129.308 280.809 129.464 280.689 129.656C279.969 130.544 279.249 131.432 278.529 132.32C277.809 133.184 277.101 134.06 276.405 134.948C275.229 136.436 274.281 137.732 273.561 138.836C272.841 139.94 272.325 140.876 272.013 141.644C271.917 141.884 271.821 142.184 271.725 142.544C271.653 142.88 271.617 143.228 271.617 143.588C271.617 144.044 271.713 144.44 271.905 144.776C272.097 145.112 272.445 145.28 272.949 145.28C273.741 145.28 274.713 144.896 275.865 144.128C277.017 143.36 278.361 142.1 279.897 140.348C279.993 140.252 280.077 140.168 280.149 140.096C280.245 140.024 280.341 139.976 280.437 139.952C280.653 139.904 280.761 139.952 280.761 140.096C280.761 140.168 280.689 140.3 280.545 140.492C279.801 141.38 278.973 142.256 278.061 143.12C277.149 143.984 276.213 144.704 275.253 145.28C274.317 145.832 273.441 146.108 272.625 146.108C271.809 146.108 271.233 145.832 270.897 145.28C270.561 144.728 270.393 144.104 270.393 143.408C270.393 142.688 270.525 142.028 270.789 141.428L267.873 144.344C267.225 144.992 266.625 145.46 266.073 145.748C265.545 146.036 265.089 146.18 264.705 146.18ZM264.381 145.388C265.413 145.388 267.129 143.972 269.529 141.14C269.649 140.996 270.069 140.468 270.789 139.556C271.509 138.62 272.529 137.264 273.849 135.488C273.681 135.2 273.393 135.056 272.985 135.056C271.497 135.056 269.505 136.232 267.009 138.584C264.657 140.768 263.481 142.604 263.481 144.092C263.481 144.956 263.781 145.388 264.381 145.388ZM287.054 133.616C286.646 133.616 286.286 133.484 285.974 133.22C285.686 132.956 285.542 132.656 285.542 132.32C285.542 131.648 285.998 131.312 286.91 131.312C287.246 131.312 287.582 131.432 287.918 131.672C288.254 131.888 288.422 132.164 288.422 132.5C288.422 132.788 288.266 133.052 287.954 133.292C287.642 133.508 287.342 133.616 287.054 133.616ZM280.394 146.396C279.866 146.396 279.434 146.228 279.098 145.892C278.738 145.532 278.558 144.908 278.558 144.02C278.558 143.516 278.678 142.94 278.918 142.292C279.134 141.62 279.41 140.948 279.746 140.276C280.106 139.604 280.454 139.004 280.79 138.476C282.134 136.292 283.238 135.188 284.102 135.164C284.318 135.164 284.582 135.26 284.894 135.452C285.206 135.62 285.362 135.812 285.362 136.028C285.362 136.028 284.45 137.204 282.626 139.556C280.826 141.884 279.926 143.54 279.926 144.524C279.926 145.292 280.226 145.676 280.826 145.676C281.21 145.676 281.702 145.52 282.302 145.208C282.926 144.872 283.574 144.452 284.246 143.948C284.918 143.444 285.554 142.904 286.154 142.328C286.778 141.752 287.282 141.224 287.666 140.744C287.906 140.432 288.11 140.216 288.278 140.096C288.47 139.976 288.59 139.916 288.638 139.916C288.734 139.916 288.782 139.988 288.782 140.132C288.782 140.252 288.638 140.492 288.35 140.852C288.086 141.212 287.714 141.632 287.234 142.112C286.658 142.688 286.022 143.312 285.326 143.984C284.63 144.656 283.874 145.232 283.058 145.712C282.242 146.168 281.354 146.396 280.394 146.396ZM289.955 146.072C289.259 146.072 288.611 145.904 288.011 145.568C287.411 145.208 287.111 144.62 287.111 143.804C287.111 142.676 287.507 141.332 288.299 139.772C289.115 138.212 290.039 136.592 291.071 134.912C293.879 130.352 295.871 128.072 297.047 128.072C297.287 128.072 297.527 128.168 297.767 128.36C298.031 128.528 298.175 128.72 298.199 128.936L295.679 132.32C294.695 133.64 293.807 134.864 293.015 135.992C292.223 137.096 291.539 138.092 290.963 138.98C290.675 139.436 290.351 139.952 289.991 140.528C289.631 141.104 289.307 141.704 289.019 142.328C288.755 142.928 288.623 143.54 288.623 144.164C288.623 144.452 288.707 144.716 288.875 144.956C289.043 145.172 289.343 145.28 289.775 145.28C290.543 145.28 291.551 144.872 292.799 144.056C294.047 143.216 295.283 142.064 296.507 140.6C296.627 140.456 296.759 140.324 296.903 140.204C297.047 140.084 297.167 140.024 297.263 140.024C297.383 140.024 297.443 140.096 297.443 140.24C297.443 140.312 297.359 140.456 297.191 140.672C297.047 140.864 296.927 141.02 296.831 141.14L295.967 142.112C295.487 142.64 294.911 143.216 294.239 143.84C293.591 144.464 292.895 144.992 292.151 145.424C291.431 145.856 290.699 146.072 289.955 146.072ZM298.385 146.18C297.809 146.18 297.233 145.976 296.657 145.568C296.081 145.16 295.757 144.68 295.685 144.128C295.445 142.28 296.609 140.084 299.177 137.54C301.721 134.996 304.013 133.724 306.053 133.724C306.605 133.724 307.037 133.856 307.349 134.12C307.517 134.288 307.637 134.516 307.709 134.804C307.805 135.092 307.877 135.236 307.925 135.236C308.021 135.236 308.105 135.224 308.177 135.2C308.249 135.152 308.333 135.128 308.429 135.128C308.717 135.128 308.969 135.236 309.185 135.452C309.401 135.668 309.521 135.86 309.545 136.028C309.569 136.076 308.801 137.264 307.241 139.592C305.681 141.872 304.973 143.42 305.117 144.236C305.237 144.788 305.501 145.064 305.909 145.064C307.157 145.064 309.437 143 312.749 138.872C312.821 138.776 312.893 138.728 312.965 138.728C313.085 138.728 313.145 138.812 313.145 138.98C313.145 139.172 313.037 139.412 312.821 139.7C309.773 143.804 307.433 145.856 305.801 145.856C305.585 145.856 305.381 145.82 305.189 145.748C304.133 145.34 303.605 144.548 303.605 143.372C303.605 142.964 303.653 142.556 303.749 142.148L301.517 144.308C300.845 144.98 300.233 145.46 299.681 145.748C299.153 146.036 298.721 146.18 298.385 146.18ZM298.061 145.388C299.453 145.388 301.349 143.864 303.749 140.816L307.565 135.56C307.373 135.224 307.061 135.056 306.629 135.056C305.165 135.056 303.185 136.232 300.689 138.584C298.097 140.984 296.933 142.964 297.197 144.524C297.317 145.1 297.605 145.388 298.061 145.388Z" fill="#050316"/>
</svg>
